PathFileType	4	(X/Y/Z)	C:/Users/beibeiliu/ov580/test_trc/User2\sequence.1_training_dense_left.trc
DataRate	CameraRate	NumFrames	NumMarkers	Units	OrigDataRate	OrigDataStartFrame	OrigNumFrames
120	120	18	19	mm	120	170	338
Frame#	Time	ThumbCMC			ThumbMCP			ThumbIP			ThumbTip			IndexMCP			IndexPIP			IndexTip			MiddleMCP			MiddlePIP			MiddleTip			RingMCP			RingPIP			RingTip			PinkyMCP			PinkyPIP			PinkyTip			BackHand1			BackHand2			BackHand3	
		X0	Y0	Z0	X1	Y1	Z1	X2	Y2	Z2	X3	Y3	Z3	X4	Y4	Z4	X5	Y5	Z5	X6	Y6	Z6	X7	Y7	Z7	X8	Y8	Z8	X9	Y9	Z9	X10	Y10	Z10	X11	Y11	Z11	X12	Y12	Z12	X13	Y13	Z13	X14	Y14	Z14	X15	Y15	Z15	X16	Y16	Z16	X17	Y17	Z17	X18	Y18	Z18	
169	1.40833	-197.197	32.8779	121.096	-207.673	47.6843	96.106	-218.216	64.1099	67.8658	-226.651	79.1604	52.4026	-172.031	32.349	35.871	-169.562	44.0891	8.27106	-161.734	58.8453	-13.7822	-139.839	23.8354	32.9114	-134.69	40.0565	2.35513	-123.113	55.5986	-20.8858	-117.97	21.1812	44.5381	-104.456	31.2078	20.026	-94.3535	47.9439	-7.07001	-100.643	22.8155	62.8373	-82.7633	31.2825	44.0753	-73.0804	37.141	23.6012	-134.26	1.5665	97.367	-142.566	-10.2606	127.109	-170.195	2.70821	103.911	
170	1.41667	-197.435	33.6457	116.917	-214.344	51.0115	99.3421	-221.741	68.5577	74.0863	-225.834	86.1632	51.9625	-169.426	40.3111	34.5212	-165.668	53.073	11.6582	-156.633	71.2796	-10.5758	-138.482	31.1108	31.9654	-133.248	48.9317	4.66901	-116.646	66.5567	-14.7602	-112.625	28.9308	42.4175	-103.524	42.7876	20.3739	-94.5241	59.2209	2.43001	-96.0703	26.297	68.076	-85.2824	38.5268	48.7417	-71.3169	49.5617	25.7115	-130.934	3.46374	98.2377	-140.464	-9.85552	126.383	-170.841	4.29267	104.372	
171	1.425	-199.782	35.5071	118.674	-211.105	54.8184	99.7626	-216.547	75.3468	72.2022	-220.555	91.8478	57.4892	-167.434	48.6188	35.9592	-159.203	62.5541	15.5387	-149.545	83.0332	-5.57382	-137.056	38.1882	35.3289	-128.096	55.7543	13.7614	-112.455	78.0679	-9.74766	-114.403	33.8808	47.8087	-100.895	47.0407	30.295	-87.4302	69.3173	7.89192	-96.4796	28.6869	73.0287	-81.2122	41.5266	52.5758	-69.6507	52.9053	36.1015	-132.135	5.53876	95.142	-146.477	-9.98224	127.54	-176.216	9.69184	103.999	
172	1.43333	-200.393	42.1816	118.172	-214.901	63.5376	100.016	-214.613	84.4029	72.2996	-218.86	104.79	57.389	-165.233	53.3987	41.4169	-154.667	69.2525	17.8164	-145.547	90.2024	0.428386	-133.479	42.2569	40.6	-122.556	62.645	16.274	-102.916	85.2679	-4.35293	-111.394	37.9817	48.3393	-95.41	52.4368	32.1121	-79.4028	70.891	17.3552	-93.4153	28.4436	77.2568	-76.4761	42.1754	57.491	-59.6109	52.5175	39.6454	-139.404	8.81154	95.6249	-149.489	-6.83516	124.895	-174.482	12.1242	104.703	
173	1.44167	-198.153	48.7555	116.409	-207.267	71.874	97.3407	-211.313	96.7933	71.0424	-207.872	113.966	57.6879	-159.464	57.3362	42.215	-147.81	76.36	16.7595	-131.579	91.6733	3.03131	-131.506	44.0218	41.8568	-114.694	63.6083	17.5699	-95.1959	84.9554	-0.314552	-111.604	35.8221	55.0373	-90.3114	46.5314	38.892	-76.4449	68.0434	19.6458	-95.49	25.5579	77.5182	-75.7447	37.8498	61.9894	-56.1637	45.565	46.9399	-145.752	8.08975	98.0607	-156.615	-1.94534	123.506	-181.579	19.9397	100.074	
174	1.45	-197.866	57.093	115.404	-202.721	79.2129	96.0065	-203.946	105.631	70.4896	-196.105	120.781	56.544	-160.068	61.7207	43.1613	-140.745	76.0194	19.9623	-123.585	93.8635	2.95664	-130.473	42.9564	42.3123	-108.398	59.7496	19.8552	-88.1948	74.3493	5.35396	-107.802	29.8474	56.6463	-90.7758	43.8361	38.809	-69.7756	58.3533	24.4212	-96.9466	19.7421	80.6777	-78.5129	29.5468	65.5932	-56.9319	35.7974	51.6562	-146.566	6.68866	97.2989	-163.734	-2.16512	124.883	-184.498	24.3678	101.835	
175	1.45833	-198.004	63.8124	117.809	-201.221	89.7757	95.1664	-193.202	111.285	71.46	-190.195	131.798	56.6609	-153.815	60.8217	42.0633	-142.171	75.5494	21.4569	-120.991	90.3214	3.10607	-130.437	39.6535	41.5495	-109.496	50.1316	22.7199	-82.9843	66.5325	3.67841	-112.406	25.25	57.0757	-92.0634	35.3663	39.3222	-71.6313	45.2472	25.7782	-100.476	12.1804	81.1832	-80.8911	19.3976	68.2331	-60.5924	22.5423	52.0362	-155.852	9.44035	102.191	-172.687	3.58484	125.051	-188.25	29.9253	102.945	
176	1.46667	-194.333	72.4889	112.876	-194.471	97.1975	94.3986	-184.82	117.953	70.9734	-178.123	135.631	56.0852	-153.197	60.8071	41.0845	-133.56	71.6374	18.1638	-116.399	82.5018	2.42302	-133.212	36.6193	40.4656	-112.604	45.7164	21.1159	-84.1181	56.1723	0.0611088	-117.332	18.6352	56.5269	-95.7135	21.6152	40.2885	-71.2891	33.4841	21.1102	-110.112	8.09651	77.8021	-83.4915	7.65414	65.7837	-65.3068	8.6191	51.2762	-160.969	8.79286	100.449	-179.058	5.72979	124.966	-190.761	36.122	98.8233	
177	1.475	-193.123	81.1646	112.635	-186.66	104.082	92.7686	-174.825	121.443	70.305	-163.419	137.233	51.4198	-152.347	64.143	35.8446	-133.714	68.8749	16.6071	-111.064	78.5946	-2.4251	-138.031	34.7134	40.907	-111.248	38.9427	16.5531	-85.9213	42.9081	0.407375	-124.59	16.4516	51.4977	-102.729	14.1906	38.2593	-75.9104	20.1173	18.2735	-118.571	-0.276123	80.942	-94.4847	-2.67475	65.2403	-72.9191	-5.36323	48.0295	-166.107	10.5283	95.4705	-185.348	9.54244	127.11	-193.149	40.4517	100.205	
178	1.48333	-185.817	87.4272	111.702	-175.123	103.89	91.4327	-161.562	125.796	65.0707	-149.484	139.615	52.1891	-151.013	63.9232	38.1624	-131.518	63.8843	15.0614	-107.894	71.2805	-6.40715	-138.842	35.9161	34.4546	-113.611	35.1384	14.2134	-88.3782	33.8421	-3.28452	-131.512	12.4991	50.8489	-106.909	4.55107	35.2034	-84.2873	8.84101	16.0755	-125.093	-6.53693	75.7465	-106.321	-8.67903	62.1445	-86.537	-15.0394	43.7127	-170.901	12.493	96.098	-191.63	18.4145	120.902	-193.806	49.6613	98.2366	
179	1.49167	-177.079	91.7148	113.49	-165.926	110.131	94.5025	-146.075	122.443	65.641	-132.26	133.223	52.6708	-145.711	61.451	33.3123	-131.13	64.2254	14.7174	-108.309	58.0692	-4.40538	-142.219	34.0074	36.21	-119.567	28.7003	15.5062	-93.4071	21.4222	-3.69678	-136.721	5.68639	52.403	-117.313	1.16822	33.8261	-91.7279	-3.04193	13.8619	-133.864	-10.5609	73.7822	-115.275	-17.2744	56.8258	-98.9416	-26.6052	41.8036	-176.243	17.2798	97.634	-193.549	26.7076	123.979	-190.912	55.0899	100.319	
180	1.5	-166.675	93.2359	111.62	-152.711	111.483	93.871	-130.74	122.001	61.746	-114.064	127.618	46.6773	-145.767	56.8248	36.8941	-126.261	53.9498	11.9226	-106.572	52.2164	-8.06072	-142.57	31.8791	32.41	-121.724	22.7153	10.2572	-99.5622	12.377	-8.66064	-143.153	2.85514	46.5905	-128.049	-1.7249	30.9056	-103.882	-12.4682	10.767	-144.261	-9.21272	69.9564	-129.393	-21.9139	55.25	-115.891	-34.2316	38.8466	-179.865	25.3762	93.1865	-196.43	29.8681	119.321	-185.649	58.8072	100.536	
181	1.50833	-156.125	92.2601	110.492	-137.814	110.922	88.8178	-117.548	117.691	64.6546	-99.8074	120.585	46.6297	-141.827	57.0991	31.3708	-127.106	50.4869	13.2355	-104.251	43.9823	-10.8406	-147.539	28.7835	33.3973	-129.383	20.419	11.3946	-108.279	2.07364	-12.1315	-152.554	3.67211	49.6927	-134.978	-8.10162	26.1096	-117.955	-17.8265	9.21721	-155.411	-12.1776	73.8292	-140.278	-23.7645	51.0233	-131.696	-40.3183	34.8424	-182.488	29.4375	93.5523	-196.266	37.745	124.071	-181.834	62.5754	96.1383	
182	1.51667	-147.528	91.2559	113.792	-125.774	104.629	89.9501	-103.549	108.883	62.6767	-87.0967	110.386	48.6276	-142.073	55.9525	33.8895	-127.451	47.7323	11.9695	-108.122	35.3496	-11.6749	-151.016	29.1726	32.1322	-134.331	12.5121	6.57904	-120.56	-2.31157	-10.9509	-156.3	7.17797	43.5447	-145.389	-9.04415	25.1139	-130.495	-25.6961	3.48412	-163.56	-11.0584	69.2868	-155.432	-28.094	55.1984	-146.538	-43.483	33.5807	-183.749	30.9752	95.7324	-195.769	45.359	124.514	-177.723	68.3825	99.3068	
183	1.525	-140.519	88.0358	111.733	-115.976	99.1559	90.5675	-94.5284	100.754	64.2791	-78.6844	93.6874	45.8717	-141.558	51.4881	31.9913	-124.617	44.4149	6.35205	-111.142	32.6311	-11.7725	-156.05	27.0686	34.5877	-140.642	9.9547	5.48751	-127.008	-7.76067	-15.399	-164.054	6.60478	46.0336	-156.273	-11.9523	24.8427	-143.823	-24.384	3.84731	-172.089	-8.97877	71.5363	-163.564	-25.0029	50.4503	-162.967	-38.5819	32.677	-183.467	38.1949	97.024	-195.926	47.4734	124.704	-174.31	70.9538	101.328	
184	1.53333	-133.619	86.0164	108.872	-109.41	92.6454	91.0223	-88.836	88.9724	65.0076	-72.6837	85.7021	49.9394	-140.584	50.0646	33.6212	-127.556	41.3813	10.808	-116.642	25.9556	-11.2333	-156.264	23.8974	30.7512	-145.002	12.8155	7.40136	-133.874	-6.94469	-15.7581	-169.589	4.67039	43.854	-162.555	-8.81621	24.3492	-154.132	-26.7794	0.19487	-177.124	-8.01495	68.7919	-172.575	-23.3898	48.8049	-173.425	-40.4472	32.9258	-184.697	37.6246	95.6976	-190.807	51.0812	125.541	-169.837	70.9846	98.4444	
185	1.54167	-127.542	81.6486	110.432	-104.393	84.796	89.5128	-83.3558	81.6289	61.957	-68.4976	74.1823	45.5843	-138.727	48.0406	30.7176	-129.581	38.1654	9.54829	-120.074	23.5092	-13.0087	-156.786	28.3797	30.1669	-149.873	9.24365	7.49399	-141.071	-10.0004	-16.1831	-172.469	8.88697	47.3226	-168.666	-5.16466	24.9826	-161.706	-24.8073	0.88328	-179.761	-2.27602	71.0472	-181.557	-24.2131	48.8381	-181.869	-36.2448	31.246	-183.578	40.1025	95.343	-187.42	53.6245	121.937	-164.694	71.6544	98.0526	
186	1.55	-121.278	78.8062	110.329	-98.643	77.0947	89.3722	-76.108	74.3887	63.8517	-62.8673	66.4844	48.1834	-139.213	46.4281	34.6139	-130.494	35.1675	4.43918	-124.436	23.3925	-14.9066	-161.87	26.5884	34.5187	-154.376	9.49858	3.86896	-150.214	-9.83417	-18.9978	-175.507	9.39634	42.722	-177.236	-7.76119	22.8953	-173.559	-26.7965	-1.60223	-188.292	-5.21353	69.6936	-188.099	-18.2098	49.6155	-191.928	-31.9293	26.4261	-185.353	37.8407	99.0186	-187.642	55.1306	123.043	-159.993	72.2447	101.468	
